<?xml version="1.0" encoding="UTF-8" ?>
<!DOCTYPE svg PUBLIC "-//W3C//DTD SVG 1.1//EN" "http://www.w3.org/Graphics/SVG/1.1/DTD/svg11.dtd">
<svg width="1080pt" height="1080pt" viewBox="0 0 1080 1080" version="1.1" xmlns="http://www.w3.org/2000/svg">
<g id="#ffffffff">
<path fill="#ffffff" opacity="1.00" d=" M 0.00 0.00 L 1080.00 0.00 L 1080.00 1080.00 L 0.00 1080.00 L 0.00 0.00 M 84.08 384.45 C 91.28 488.96 98.33 593.48 105.56 697.99 C 128.58 694.76 151.65 691.85 174.67 688.61 C 175.51 699.75 176.16 710.90 176.93 722.04 C 270.64 709.66 364.30 696.97 457.98 684.36 C 457.35 666.25 456.58 648.16 456.09 630.04 C 456.11 626.71 455.02 623.19 456.39 620.01 L 456.72 619.63 C 470.02 622.65 484.47 620.61 496.63 614.49 C 513.03 605.98 524.63 589.72 529.00 571.93 C 533.12 555.15 533.33 536.48 525.13 520.84 C 519.02 508.79 507.14 500.10 493.97 497.38 C 479.70 494.45 464.24 496.15 451.42 503.25 C 450.32 471.13 448.96 439.02 448.01 406.90 C 424.48 406.98 400.95 407.23 377.41 407.33 C 377.02 399.10 376.79 390.87 376.39 382.64 C 278.95 383.42 181.51 383.74 84.08 384.45 M 715.16 632.98 C 724.30 632.96 733.44 633.11 742.58 632.90 C 770.64 573.88 798.95 514.97 827.12 456.00 C 817.99 455.98 808.87 456.04 799.75 455.97 C 771.47 514.94 743.37 573.98 715.16 632.98 M 837.55 498.00 C 832.54 498.01 827.54 497.96 822.54 498.05 C 821.06 506.72 819.55 515.38 818.07 524.05 C 823.05 524.05 828.03 524.03 833.02 524.06 C 830.50 539.89 827.85 555.69 825.30 571.52 C 824.07 579.65 821.90 587.89 823.55 596.14 C 824.82 605.89 831.41 614.90 840.75 618.32 C 851.87 622.33 864.23 621.52 875.44 618.27 C 876.45 609.37 877.15 600.43 878.21 591.53 C 873.42 591.67 868.40 592.70 863.75 591.18 C 859.25 589.45 859.93 583.71 860.33 579.86 C 863.36 561.26 866.62 542.70 869.59 524.09 C 876.06 524.00 882.54 524.07 889.02 524.04 C 890.48 515.35 892.09 506.69 893.57 498.01 C 887.11 497.99 880.66 498.02 874.21 497.98 C 876.03 488.00 877.72 478.00 879.48 468.01 C 867.26 467.99 855.03 468.00 842.81 468.00 C 841.03 477.99 839.29 488.00 837.55 498.00 M 700.41 494.61 C 696.33 495.50 692.61 497.74 689.80 500.80 C 684.31 506.55 683.88 516.21 688.30 522.70 C 695.41 532.97 712.12 533.76 720.58 524.78 C 727.37 518.26 727.24 506.02 720.31 499.65 C 715.12 494.69 707.31 492.99 700.41 494.61 M 947.02 496.95 C 931.28 499.46 917.27 509.31 908.45 522.42 C 899.39 535.75 895.74 552.07 895.35 568.00 C 895.02 584.44 902.48 601.31 916.10 610.88 C 928.09 619.59 943.61 622.29 958.12 620.46 C 972.77 618.83 987.67 612.47 996.56 600.29 C 991.39 593.60 986.27 586.89 981.16 580.18 C 971.79 589.54 957.49 594.74 944.52 590.66 C 936.35 588.00 932.01 579.24 931.96 571.07 C 955.98 571.01 980.00 571.07 1004.02 571.04 C 1005.56 559.59 1007.76 547.97 1005.76 536.42 C 1003.77 523.86 997.50 511.55 986.88 504.19 C 975.46 496.02 960.53 494.71 947.02 496.95 M 559.03 498.00 C 555.01 522.37 550.89 546.71 546.80 571.07 C 545.25 579.27 545.09 587.86 547.10 596.00 C 549.20 604.50 554.41 612.52 562.22 616.78 C 570.64 621.29 580.77 621.92 590.00 619.93 C 598.84 618.00 606.42 612.49 612.36 605.84 C 611.57 610.24 610.77 614.65 609.90 619.04 C 621.29 619.04 632.67 619.05 644.06 619.04 C 651.08 578.69 658.04 538.34 665.11 498.00 C 652.78 498.00 640.44 497.99 628.11 498.01 C 623.21 526.18 618.27 554.36 613.17 582.50 C 608.78 588.92 600.65 592.57 592.90 591.95 C 589.13 591.97 584.96 590.27 583.45 586.58 C 581.60 582.01 582.30 576.93 583.18 572.22 C 587.38 547.49 591.60 522.75 595.73 498.00 C 583.49 498.00 571.26 498.00 559.03 498.00 M 687.11 583.15 C 682.25 583.63 677.58 585.82 674.21 589.37 C 668.37 595.05 667.77 604.99 672.26 611.65 C 679.20 621.75 695.44 622.76 704.06 614.30 C 710.74 608.39 711.40 597.19 705.86 590.33 C 701.42 584.85 694.00 582.39 687.11 583.15 Z" />
<path fill="#ffffff" opacity="1.00" d=" M 473.50 525.70 C 478.82 524.38 485.21 524.63 489.37 528.64 C 493.70 532.85 495.09 539.14 495.19 544.99 C 495.09 556.61 494.35 568.65 489.30 579.31 C 486.63 584.98 481.87 589.99 475.59 591.44 C 470.42 592.45 464.38 592.40 460.16 588.81 C 455.89 585.16 454.64 579.28 454.34 573.92 C 454.07 566.23 454.54 558.49 456.02 550.93 C 457.89 540.72 462.63 528.95 473.50 525.70 Z" />
<path fill="#ffffff" opacity="1.00" d=" M 950.86 525.90 C 956.96 524.22 964.87 524.46 969.10 529.87 C 972.84 534.75 972.21 541.35 970.91 546.99 C 958.60 546.99 946.30 547.03 933.99 546.97 C 937.14 538.51 941.60 528.93 950.86 525.90 Z" />
</g>
<g id="#467edbff">
<path fill="#467edb" opacity="1.00" d=" M 84.08 384.45 C 181.51 383.74 278.95 383.42 376.39 382.64 C 376.79 390.87 377.02 399.10 377.41 407.33 C 317.26 407.68 257.11 408.02 196.96 408.36 C 183.17 408.52 169.36 408.30 155.57 408.75 C 161.90 502.04 168.32 595.32 174.67 688.61 C 151.65 691.85 128.58 694.76 105.56 697.99 C 98.33 593.48 91.28 488.96 84.08 384.45 Z" />
</g>
<g id="#335faaff">
<path fill="#335faa" opacity="1.00" d=" M 196.96 408.36 C 257.11 408.02 317.26 407.68 377.41 407.33 C 400.95 407.23 424.48 406.98 448.01 406.90 C 448.96 439.02 450.32 471.13 451.42 503.25 C 436.31 511.55 425.65 526.64 421.10 543.09 C 416.58 559.40 415.71 577.54 422.81 593.26 C 428.71 606.99 441.78 617.68 456.72 619.63 L 456.39 620.01 C 455.02 623.19 456.11 626.71 456.09 630.04 C 456.58 648.16 457.35 666.25 457.98 684.36 C 364.30 696.97 270.64 709.66 176.93 722.04 C 176.16 710.90 175.51 699.75 174.67 688.61 C 168.32 595.32 161.90 502.04 155.57 408.75 C 169.36 408.30 183.17 408.52 196.96 408.36 M 295.35 456.06 C 286.06 510.39 276.52 564.67 267.25 619.00 C 279.95 619.02 292.65 618.95 305.35 619.04 C 308.90 599.76 312.12 580.42 315.46 561.11 C 322.58 561.00 329.69 561.02 336.81 561.09 C 342.80 580.40 348.61 599.77 354.75 619.03 C 368.39 618.94 382.03 619.06 395.68 618.97 C 395.04 615.87 394.17 612.83 393.07 609.87 C 386.53 590.49 380.14 571.06 373.57 551.70 C 381.89 547.82 390.04 543.12 396.17 536.16 C 403.74 528.02 407.60 517.04 408.58 506.10 C 409.69 496.01 408.14 485.26 402.33 476.74 C 396.07 467.43 385.82 461.45 375.10 458.72 C 363.00 455.44 350.35 456.15 337.94 456.08 C 323.74 456.03 309.55 455.90 295.35 456.06 Z" />
<path fill="#335faa" opacity="1.00" d=" M 328.45 486.12 C 336.27 485.94 344.10 486.14 351.92 486.08 C 356.55 486.03 361.54 486.65 365.21 489.76 C 369.36 493.19 370.78 498.87 370.67 504.06 C 370.48 512.39 366.91 520.98 360.03 525.97 C 355.17 529.64 349.03 531.24 343.00 531.22 C 335.56 531.23 328.13 531.01 320.71 530.97 C 323.22 516.01 325.93 501.08 328.45 486.12 Z" />
</g>
<g id="#04265eff">
<path fill="#04265e" opacity="1.00" d=" M 295.35 456.06 C 309.55 455.90 323.74 456.03 337.94 456.08 C 350.35 456.15 363.00 455.44 375.10 458.72 C 385.82 461.45 396.07 467.43 402.33 476.74 C 408.14 485.26 409.69 496.01 408.58 506.10 C 407.60 517.04 403.74 528.02 396.17 536.16 C 390.04 543.12 381.89 547.82 373.57 551.70 C 380.14 571.06 386.53 590.49 393.07 609.87 C 394.17 612.83 395.04 615.87 395.68 618.97 C 382.03 619.06 368.39 618.94 354.75 619.03 C 348.61 599.77 342.80 580.40 336.81 561.09 C 329.69 561.02 322.58 561.00 315.46 561.11 C 312.12 580.42 308.90 599.76 305.35 619.04 C 292.65 618.95 279.95 619.02 267.25 619.00 C 276.52 564.67 286.06 510.39 295.35 456.06 M 328.45 486.12 C 325.93 501.08 323.22 516.01 320.71 530.97 C 328.13 531.01 335.56 531.23 343.00 531.22 C 349.03 531.24 355.17 529.64 360.03 525.97 C 366.91 520.98 370.48 512.39 370.67 504.06 C 370.78 498.87 369.36 493.19 365.21 489.76 C 361.54 486.65 356.55 486.03 351.92 486.08 C 344.10 486.14 336.27 485.94 328.45 486.12 Z" />
<path fill="#04265e" opacity="1.00" d=" M 715.16 632.98 C 743.37 573.98 771.47 514.94 799.75 455.97 C 808.87 456.04 817.99 455.98 827.12 456.00 C 798.95 514.97 770.64 573.88 742.58 632.90 C 733.44 633.11 724.30 632.96 715.16 632.98 Z" />
<path fill="#04265e" opacity="1.00" d=" M 837.55 498.00 C 839.29 488.00 841.03 477.99 842.81 468.00 C 855.03 468.00 867.26 467.99 879.48 468.01 C 877.72 478.00 876.03 488.00 874.21 497.98 C 880.66 498.02 887.11 497.99 893.57 498.01 C 892.09 506.69 890.48 515.35 889.02 524.04 C 882.54 524.07 876.06 524.00 869.59 524.09 C 866.62 542.70 863.36 561.26 860.33 579.86 C 859.93 583.71 859.25 589.45 863.75 591.18 C 868.40 592.70 873.42 591.67 878.21 591.53 C 877.15 600.43 876.45 609.37 875.44 618.27 C 864.23 621.52 851.87 622.33 840.75 618.32 C 831.41 614.90 824.82 605.89 823.55 596.14 C 821.90 587.89 824.07 579.65 825.30 571.52 C 827.85 555.69 830.50 539.89 833.02 524.06 C 828.03 524.03 823.05 524.05 818.07 524.05 C 819.55 515.38 821.06 506.72 822.54 498.05 C 827.54 497.96 832.54 498.01 837.55 498.00 Z" />
<path fill="#04265e" opacity="1.00" d=" M 700.41 494.61 C 707.31 492.99 715.12 494.69 720.31 499.65 C 727.24 506.02 727.37 518.26 720.58 524.78 C 712.12 533.76 695.41 532.97 688.30 522.70 C 683.88 516.21 684.31 506.55 689.80 500.80 C 692.61 497.74 696.33 495.50 700.41 494.61 Z" />
<path fill="#04265e" opacity="1.00" d=" M 451.42 503.25 C 464.24 496.15 479.70 494.45 493.97 497.38 C 507.14 500.10 519.02 508.79 525.13 520.84 C 533.33 536.48 533.12 555.15 529.00 571.93 C 524.63 589.72 513.03 605.98 496.63 614.49 C 484.47 620.61 470.02 622.65 456.72 619.63 C 441.78 617.68 428.71 606.99 422.81 593.26 C 415.71 577.54 416.58 559.40 421.10 543.09 C 425.65 526.64 436.31 511.55 451.42 503.25 M 473.50 525.70 C 462.63 528.95 457.89 540.72 456.02 550.93 C 454.54 558.49 454.07 566.23 454.34 573.92 C 454.64 579.28 455.89 585.16 460.16 588.81 C 464.38 592.40 470.42 592.45 475.59 591.44 C 481.87 589.99 486.63 584.98 489.30 579.31 C 494.35 568.65 495.09 556.61 495.19 544.99 C 495.09 539.14 493.70 532.85 489.37 528.64 C 485.21 524.63 478.82 524.38 473.50 525.70 Z" />
<path fill="#04265e" opacity="1.00" d=" M 947.02 496.95 C 960.53 494.71 975.46 496.02 986.88 504.19 C 997.50 511.55 1003.77 523.86 1005.76 536.42 C 1007.76 547.97 1005.56 559.59 1004.02 571.04 C 980.00 571.07 955.98 571.01 931.96 571.07 C 932.01 579.24 936.35 588.00 944.52 590.66 C 957.49 594.74 971.79 589.54 981.16 580.18 C 986.27 586.89 991.39 593.60 996.56 600.29 C 987.67 612.47 972.77 618.83 958.12 620.46 C 943.61 622.29 928.09 619.59 916.10 610.88 C 902.48 601.31 895.02 584.44 895.35 568.00 C 895.74 552.07 899.39 535.75 908.45 522.42 C 917.27 509.31 931.28 499.46 947.02 496.95 M 950.86 525.90 C 941.60 528.93 937.14 538.51 933.99 546.97 C 946.30 547.03 958.60 546.99 970.91 546.99 C 972.21 541.35 972.84 534.75 969.10 529.87 C 964.87 524.46 956.96 524.22 950.86 525.90 Z" />
<path fill="#04265e" opacity="1.00" d=" M 559.03 498.00 C 571.26 498.00 583.49 498.00 595.73 498.00 C 591.60 522.75 587.38 547.49 583.18 572.22 C 582.30 576.93 581.60 582.01 583.45 586.58 C 584.96 590.27 589.13 591.97 592.90 591.95 C 600.65 592.57 608.78 588.92 613.17 582.50 C 618.27 554.36 623.21 526.18 628.11 498.01 C 640.44 497.99 652.78 498.00 665.11 498.00 C 658.04 538.34 651.08 578.69 644.06 619.04 C 632.67 619.05 621.29 619.04 609.90 619.04 C 610.77 614.65 611.57 610.24 612.36 605.84 C 606.42 612.49 598.84 618.00 590.00 619.93 C 580.77 621.92 570.64 621.29 562.22 616.78 C 554.41 612.52 549.20 604.50 547.10 596.00 C 545.09 587.86 545.25 579.27 546.80 571.07 C 550.89 546.71 555.01 522.37 559.03 498.00 Z" />
<path fill="#04265e" opacity="1.00" d=" M 687.11 583.15 C 694.00 582.39 701.42 584.85 705.86 590.33 C 711.40 597.19 710.74 608.39 704.06 614.30 C 695.44 622.76 679.20 621.75 672.26 611.65 C 667.77 604.99 668.37 595.05 674.21 589.37 C 677.58 585.82 682.25 583.63 687.11 583.15 Z" />
</g>
</svg>
